<?xml version="1.0" standalone="no"?>
<!DOCTYPE svg PUBLIC "-//W3C//DTD SVG 20010904//EN"
 "http://www.w3.org/TR/2001/REC-SVG-20010904/DTD/svg10.dtd">
<svg version="1.0" xmlns="http://www.w3.org/2000/svg"
 width="1023.407177pt" height="856.594180pt" viewBox="0 0 1023.407177 856.594180"
 preserveAspectRatio="xMidYMid meet">
<metadata>
Created by potrace 1.12, written by Peter Selinger 2001-2015
</metadata>
<g transform="translate(-0.641818,939.577795) scale(0.100000,-0.100000)"
fill="#000000" stroke="none">
<path d="M2680 9380 c-229 -35 -393 -81 -650 -183 -376 -148 -707 -421 -935
-772 -84 -128 -171 -336 -230 -547 -43 -157 -69 -480 -45 -584 9 -44 8 -57 -6
-86 -14 -31 -25 -38 -89 -57 -109 -34 -270 -110 -360 -171 -191 -129 -362
-349 -359 -463 3 -88 75 -133 349 -212 44 -13 103 -26 130 -30 28 -4 73 -16
100 -26 41 -15 55 -27 78 -66 16 -27 41 -66 57 -88 28 -39 191 -200 244 -240
31 -24 42 -73 26 -117 -46 -124 -108 -505 -130 -798 -10 -139 -9 -178 10 -375
11 -121 24 -229 27 -240 3 -11 14 -60 24 -110 36 -185 95 -393 147 -520 64
-157 256 -495 353 -624 64 -85 158 -199 188 -230 20 -20 68 -72 106 -115 123
-139 368 -327 636 -489 61 -36 297 -154 394 -197 88 -38 175 -73 260 -103 132
-46 157 -54 455 -134 110 -30 135 -40 132 -54 -3 -12 -198 -553 -224 -621 -5
-15 -19 -35 -30 -45 -19 -17 -52 -18 -450 -23 l-430 -5 -29 -33 c-32 -36 -37
-77 -15 -120 14 -27 28 -36 89 -61 20 -8 244 -11 772 -11 704 0 746 1 787 19
62 27 80 50 80 107 0 37 -6 52 -26 73 l-26 26 -218 5 c-150 3 -224 9 -239 18
-40 23 -30 75 67 362 81 238 92 265 113 268 13 2 95 -4 183 -13 87 -9 206 -21
264 -27 129 -12 703 -4 780 11 30 6 98 18 150 26 119 19 292 51 345 64 60 16
85 14 85 -6 0 -10 -24 -103 -54 -208 -30 -104 -68 -242 -86 -305 -40 -143 -51
-165 -91 -179 -20 -7 -130 -11 -301 -11 -220 0 -274 -3 -298 -15 -37 -19 -50
-43 -50 -95 0 -33 6 -48 29 -71 16 -16 39 -29 50 -29 11 0 23 -4 26 -10 8 -13
1415 -14 1447 -1 13 5 36 12 51 16 43 9 77 51 77 94 -1 40 -16 66 -57 93 -26
16 -54 18 -321 18 -323 0 -355 5 -364 54 -5 24 17 112 103 426 12 41 36 128
53 194 37 136 25 125 196 186 52 18 100 36 105 40 6 4 28 13 50 20 22 7 74 29
115 48 41 19 109 50 150 69 118 54 241 128 430 256 239 161 255 173 440 330
84 71 124 89 159 74 24 -10 377 -269 511 -374 30 -23 66 -51 79 -60 13 -10 37
-30 55 -44 29 -24 235 -185 302 -236 16 -12 88 -68 159 -124 72 -56 162 -125
200 -155 39 -29 117 -90 175 -135 134 -104 168 -119 275 -119 77 0 255 32 280
50 6 4 23 10 39 14 54 13 257 118 354 183 152 103 253 191 307 270 33 50 34
116 2 164 -26 39 -23 37 -352 258 -343 230 -696 477 -850 593 -27 21 -55 42
-60 46 -67 49 -197 150 -263 204 -46 37 -87 68 -91 68 -4 0 -15 16 -25 36 -15
33 -15 38 -1 60 9 14 44 37 78 53 34 16 92 43 129 59 138 64 141 98 32 316
-42 83 -79 156 -84 161 -4 6 -48 89 -98 185 -230 448 -313 605 -361 685 -20
33 -41 69 -48 80 -7 11 -20 35 -29 53 -10 17 -21 32 -26 32 -4 0 -8 5 -8 12 0
7 -11 28 -24 47 -13 20 -74 117 -136 216 -62 99 -127 199 -144 221 -17 23 -38
52 -46 64 -31 46 -135 187 -176 240 -24 30 -50 64 -58 75 -14 19 -94 115 -205
245 -128 151 -428 451 -571 570 -29 25 -67 57 -84 71 -114 96 -429 315 -561
389 -148 84 -245 134 -405 208 -78 36 -396 162 -409 162 -38 0 -101 105 -186
310 -82 199 -186 385 -315 570 -82 117 -265 314 -380 411 -129 108 -314 218
-502 299 -40 17 -87 38 -105 46 -17 8 -36 14 -43 14 -7 0 -26 6 -43 14 -78 34
-289 88 -442 113 -142 24 -503 25 -645 3z m510 -245 c229 -25 452 -83 660
-172 259 -110 393 -197 567 -366 130 -127 224 -247 320 -408 91 -153 96 -163
133 -239 18 -36 36 -72 40 -81 8 -14 94 -231 138 -348 29 -75 64 -102 187
-140 61 -18 114 -38 119 -42 6 -5 16 -9 24 -9 14 0 112 -37 189 -71 23 -11 44
-19 48 -19 9 0 174 -77 230 -107 28 -15 68 -36 90 -48 22 -11 42 -23 43 -27 2
-5 7 -8 12 -8 9 0 95 -52 160 -96 25 -17 52 -34 60 -37 37 -16 232 -164 430
-326 201 -164 414 -373 524 -512 10 -13 58 -69 106 -124 72 -84 170 -210 287
-372 34 -47 193 -286 193 -290 0 -2 35 -56 78 -121 209 -314 245 -377 240
-425 -3 -29 -6 -32 -41 -35 -22 -2 -51 1 -65 7 -15 5 -76 28 -137 50 -169 61
-233 86 -321 124 -94 41 -370 182 -539 277 -27 15 -72 40 -100 55 -146 82
-170 87 -208 47 -44 -46 -32 -80 59 -169 41 -40 78 -73 84 -73 6 0 26 -11 43
-24 18 -13 50 -34 72 -47 59 -33 105 -60 176 -101 75 -43 365 -188 376 -188 5
0 20 -6 35 -14 14 -8 43 -19 65 -26 21 -7 43 -16 48 -20 6 -4 28 -13 50 -20
22 -7 45 -16 50 -20 6 -4 57 -22 115 -40 58 -18 123 -38 145 -45 22 -8 74 -23
115 -35 134 -38 164 -57 214 -135 50 -79 162 -277 212 -375 40 -78 42 -102 9
-124 -35 -23 -36 -23 -360 19 -125 17 -265 44 -375 73 -41 11 -102 28 -135 36
-33 9 -67 20 -75 25 -9 5 -31 12 -50 16 -19 4 -48 13 -65 20 -16 7 -73 27
-125 45 -52 18 -108 38 -125 45 -16 7 -59 26 -95 41 -119 50 -320 144 -330
154 -3 3 -14 10 -25 16 -11 6 -42 23 -70 39 -27 15 -68 38 -90 50 -95 52 -174
101 -365 226 -226 147 -275 168 -325 135 -46 -30 -25 -95 58 -185 38 -39 182
-151 196 -151 5 0 11 -4 13 -8 13 -31 380 -247 618 -364 227 -112 292 -139
590 -250 30 -11 69 -26 86 -34 18 -7 49 -16 70 -20 22 -4 47 -11 56 -15 9 -5
45 -16 80 -24 305 -71 358 -86 358 -106 0 -9 -6 -22 -14 -29 -50 -41 -560 -87
-841 -76 -201 9 -400 25 -455 37 -25 5 -83 16 -130 24 -132 23 -339 70 -485
110 -84 23 -209 67 -355 125 -30 12 -75 29 -100 37 -63 23 -342 166 -425 218
-38 24 -83 52 -100 61 -16 9 -53 34 -81 56 -28 21 -54 38 -57 38 -8 0 -15 6
-106 82 -35 29 -71 58 -81 63 -22 13 -260 251 -260 260 0 4 -17 28 -39 54 -54
64 -111 158 -171 281 -89 181 -103 224 -131 408 l-22 142 28 236 c28 245 27
290 -4 319 -32 28 -57 10 -103 -73 -61 -109 -76 -151 -104 -286 -93 -456 92
-977 503 -1412 149 -158 560 -439 818 -559 44 -20 103 -47 130 -60 263 -123
725 -269 984 -311 52 -8 98 -17 102 -20 10 -6 289 -41 389 -49 41 -3 202 -10
357 -15 363 -11 462 -3 782 61 123 25 167 24 213 -4 80 -48 239 -166 399 -296
31 -25 69 -55 84 -66 16 -11 49 -37 74 -58 39 -31 113 -86 250 -185 14 -9 46
-34 73 -54 26 -21 50 -38 54 -38 3 0 24 -15 47 -34 23 -18 56 -41 72 -50 25
-14 103 -66 140 -93 6 -5 28 -20 50 -34 22 -14 95 -63 163 -108 68 -44 125
-81 128 -81 15 0 103 -74 112 -95 17 -37 0 -66 -80 -130 -62 -49 -75 -55 -115
-55 -34 0 -55 7 -79 25 -18 14 -35 25 -38 25 -3 0 -14 7 -23 16 -16 14 -82 63
-158 119 -16 11 -53 39 -84 62 -31 24 -61 46 -66 50 -6 5 -37 29 -70 54 -132
100 -187 115 -231 64 -38 -45 -31 -65 49 -142 132 -128 223 -208 323 -284 85
-65 99 -80 99 -105 0 -41 -71 -75 -170 -82 -64 -4 -78 -2 -112 19 -40 24 -187
131 -238 172 -16 13 -88 67 -160 120 -153 113 -238 178 -351 267 -45 36 -94
74 -110 85 -15 11 -55 43 -89 70 -33 28 -107 84 -164 125 -56 41 -180 135
-274 208 -95 73 -197 152 -227 175 -30 23 -71 49 -91 58 -48 22 -75 10 -161
-72 -202 -195 -407 -354 -663 -514 -104 -66 -471 -250 -585 -293 -47 -18 -94
-37 -105 -42 -11 -4 -60 -20 -110 -35 -49 -15 -110 -33 -135 -41 -130 -40
-470 -108 -676 -134 -39 -5 -165 -14 -278 -20 -365 -21 -743 9 -1111 89 -278
60 -607 174 -905 314 -128 60 -404 226 -540 326 -266 194 -481 421 -670 706
-91 138 -248 441 -290 560 -52 148 -96 307 -114 415 -8 47 -20 110 -25 140 -6
30 -15 134 -21 231 -16 280 6 519 76 836 32 146 55 200 89 209 14 3 85 1 158
-6 245 -21 419 20 597 141 70 48 170 157 170 186 0 4 7 22 16 38 12 21 17 55
17 110 0 97 -19 145 -96 237 -29 35 -72 92 -96 128 -129 189 -256 334 -381
433 -70 56 -89 68 -163 104 -102 50 -236 91 -351 108 -91 14 -110 63 -103 255
6 149 20 250 48 345 105 358 189 507 420 743 158 162 319 278 524 377 170 82
153 75 305 124 171 56 284 79 500 104 83 9 255 6 380 -8z m-2030 -2145 c162
-31 291 -94 402 -199 84 -79 223 -254 240 -302 13 -39 -11 -78 -50 -80 -60 -3
-182 2 -262 12 -47 5 -182 16 -300 24 -407 28 -605 44 -640 54 -19 5 -73 15
-120 22 -140 19 -174 52 -130 123 27 45 150 159 217 202 108 69 256 129 353
144 65 10 237 10 290 0z m794 -741 c52 -41 29 -142 -49 -216 -48 -46 -176
-104 -274 -125 -104 -22 -160 -21 -299 5 -230 44 -518 259 -437 327 30 25 88
28 556 29 468 1 477 1 503 -20z"/>
<path d="M2747 8461 c-270 -59 -525 -282 -630 -551 -38 -97 -44 -132 -51 -280
-9 -203 28 -373 117 -532 154 -275 386 -439 665 -467 253 -26 473 40 657 197
140 119 248 280 294 437 25 83 51 278 51 376 0 142 -82 360 -186 499 -64 84
-208 201 -309 250 -121 59 -216 81 -380 86 -113 3 -157 0 -228 -15z m423 -201
c204 -72 342 -194 435 -385 53 -110 63 -176 28 -190 -26 -10 -1311 -5 -1339 5
-34 13 -40 53 -19 114 87 247 263 400 550 479 11 3 79 5 150 3 104 -3 143 -8
195 -26z m-545 -744 c15 -10 26 -29 30 -53 4 -21 16 -66 27 -100 43 -137 192
-208 345 -164 64 18 132 91 166 178 35 89 52 99 166 95 135 -4 251 -20 279
-38 23 -15 24 -21 19 -73 -14 -143 -158 -350 -319 -457 -38 -26 -106 -60 -151
-77 -78 -30 -89 -31 -232 -31 -162 -1 -205 9 -335 75 -178 90 -331 291 -379
501 -23 96 -17 137 22 157 35 18 331 7 362 -13z"/>
</g>
</svg>
